<svg xmlns="http://www.w3.org/2000/svg" viewBox="0 0 310.75 310.75" style="enable-background:new 0 0 310.75 310.75" xml:space="preserve"><path d="M183.815 265.726c-32.444 0-60.868-21.837-76.306-54.325H209.61v-45.023H95.643c-.284-3.642-.437-7.29-.437-11.016 0-3.691.152-7.384.437-10.977h113.969V99.353H107.51c15.438-32.485 43.861-54.315 76.306-54.315 31.01 0 60.21 20.759 76.2 54.152l40.626-19.418C277.091 30.554 232.329 0 183.815 0c-36.47 0-70.51 16.665-95.851 46.966-12.745 15.243-22.483 33.029-28.885 52.387H10.108v45.031h40.39a184.134 184.134 0 0 0 0 21.993h-40.39V211.4h48.971c6.402 19.356 16.14 37.122 28.886 52.351 25.341 30.303 59.381 46.999 95.851 46.999 48.515 0 93.275-30.55 116.826-79.767l-40.626-19.454c-15.991 33.436-45.191 54.197-76.201 54.197z"/></svg>