<svg xmlns="http://www.w3.org/2000/svg" width="85.43" height="85.43" style="enable-background:new 0 0 85.43 85.43" xml:space="preserve"><path d="M58.878 42.166c-2.838-2.262-7.025-4.459-12.8-6.717-6.291-2.446-8.85-3.95-9.891-4.783-1.229-.982-1.801-2.269-1.801-4.047 0-1.271 0-5.14 10.141-5.14 5.443 0 10.383.88 14.683 2.615.51.206 1.084.176 1.569-.083.484-.258.832-.717.947-1.255l1.938-9.064a1.862 1.862 0 0 0-1.31-2.179c-3.549-1.014-8.137-1.629-13.66-1.833V2.01a1.862 1.862 0 0 0-.485-1.411A1.869 1.869 0 0 0 46.843 0h-6.377a1.864 1.864 0 0 0-1.855 2.013l.053 8.089c-5.588.853-9.9 2.938-12.836 6.208-3.219 3.588-4.852 7.792-4.852 12.496 0 5.448 2.338 10.081 6.961 13.777 2.707 2.131 6.928 4.325 12.908 6.708 4.557 1.799 7.702 3.369 9.346 4.668 1.709 1.35 2.541 2.917 2.541 4.79 0 3.493-4.063 5.265-12.078 5.265-5.871 0-11.471-1.01-16.648-3.001a1.862 1.862 0 0 0-2.489 1.353l-1.939 9.189a1.862 1.862 0 0 0 1.404 2.198c5.516 1.274 11.416 1.976 17.566 2.094l.033 7.611c-.029.512.078 1.014.43 1.387a1.86 1.86 0 0 0 1.355.585h6.5a1.86 1.86 0 0 0 1.814-2.277l.024-7.928c11.255-1.982 17.188-8.667 17.188-19.412.002-5.323-2.359-9.913-7.014-13.647z"/></svg>